<?xml version="1.0" standalone="no"?>
<svg viewBox="0 0 200 200" xmlns="http://www.w3.org/2000/svg">
  <path fill="#00AF91" d="M43.3,-76.8C55.1,-68.1,63.2,-54.6,70.6,-41C78,-27.4,84.7,-13.7,85.7,0.6C86.7,14.9,82,29.7,74,42.3C66,54.9,54.8,65.2,41.9,72.7C29,80.3,14.5,85.1,-0.4,85.8C-15.3,86.5,-30.7,83.1,-44.4,76.1C-58.1,69,-70.1,58.2,-75.3,44.9C-80.5,31.6,-78.8,15.8,-78,0.5C-77.1,-14.8,-77.1,-29.7,-71.8,-42.7C-66.5,-55.8,-55.8,-67,-43,-75.1C-30.1,-83.2,-15.1,-88.2,0.3,-88.8C15.7,-89.3,31.4,-85.4,43.3,-76.8Z" transform="translate(100 100)" />
</svg>
