<svg id="visual" viewBox="0 0 1920 200" width="1920" height="200" xmlns="http://www.w3.org/2000/svg" xmlns:xlink="http://www.w3.org/1999/xlink" version="1.1"><path d="M0 14L29.2 37C58.3 60 116.7 106 174.8 123.5C233 141 291 130 349.2 110.7C407.3 91.3 465.7 63.7 523.8 68.2C582 72.7 640 109.3 698.2 127.7C756.3 146 814.7 146 872.8 124.5C931 103 989 60 1047.2 42.2C1105.3 24.3 1163.7 31.7 1221.8 43.3C1280 55 1338 71 1396.2 90.2C1454.3 109.3 1512.7 131.7 1570.8 125.7C1629 119.7 1687 85.3 1745.2 63.5C1803.3 41.7 1861.7 32.3 1890.8 27.7L1920 23" fill="none" stroke-linecap="round" stroke-linejoin="miter" stroke="#00AF91" stroke-width="40"></path></svg>