<svg id="visual" viewBox="0 0 1920 200" width="1920" height="200" xmlns="http://www.w3.org/2000/svg" xmlns:xlink="http://www.w3.org/1999/xlink" version="1.1"><path d="M0 122L20 130.5C40 139 80 156 120 164C160 172 200 171 240 160C280 149 320 128 360 123.5C400 119 440 131 480 141C520 151 560 159 600 163.3C640 167.7 680 168.3 720 159.8C760 151.3 800 133.7 840 130C880 126.3 920 136.7 960 137.8C1000 139 1040 131 1080 124.8C1120 118.7 1160 114.3 1200 120.5C1240 126.7 1280 143.3 1320 144.5C1360 145.7 1400 131.3 1440 133.5C1480 135.7 1520 154.3 1560 156.7C1600 159 1640 145 1680 144.8C1720 144.7 1760 158.3 1800 165C1840 171.7 1880 171.3 1900 171.2L1920 171" fill="none" stroke="#00AF91" stroke-width="40" stroke-linecap="round" stroke-linejoin="miter"></path></svg>