<svg id="visual" viewBox="0 0 1920 700" width="1920" height="700" xmlns="http://www.w3.org/2000/svg" xmlns:xlink="http://www.w3.org/1999/xlink" version="1.1"><g><g transform="translate(1505 499)"><path d="M55.3 -36C69.1 -8.2 75.7 19.7 65.3 46.4C54.9 73.1 27.4 98.7 -3.8 100.9C-35.1 103.1 -70.2 81.9 -79.6 55.8C-89 29.6 -72.8 -1.5 -55.3 -31.5C-37.7 -61.5 -18.9 -90.4 1 -90.9C20.8 -91.5 41.6 -63.8 55.3 -36Z" fill="#00AF91"></path></g><g transform="translate(342 129)"><path d="M42.1 -26.1C51 -8.9 52.2 10.9 43.9 25.5C35.6 40.1 17.8 49.4 -2.9 51.1C-23.6 52.8 -47.2 46.8 -55.2 32.4C-63.1 18 -55.5 -4.8 -43.7 -23.7C-31.9 -42.6 -15.9 -57.6 0.3 -57.8C16.6 -58 33.2 -43.4 42.1 -26.1Z" fill="#00AF91"></path></g><g transform="translate(1260 388)"><path d="M19.9 -11C23.9 -4.7 23.7 4.4 19.7 12.5C15.7 20.6 7.9 27.6 -1.9 28.7C-11.7 29.8 -23.4 25 -28.8 16.1C-34.2 7.2 -33.3 -5.7 -27.5 -13.2C-21.6 -20.6 -10.8 -22.5 -1.4 -21.7C8 -20.9 16 -17.4 19.9 -11Z" fill="#00AF91"></path></g><g transform="translate(887 303)"><path d="M13.4 -7.9C17.1 -1.3 19.6 5.7 17.2 9.7C14.7 13.6 7.4 14.4 0.9 13.9C-5.6 13.4 -11.2 11.5 -14.6 7.1C-17.9 2.6 -19.1 -4.6 -16.3 -10.6C-13.5 -16.7 -6.8 -21.7 -1 -21.2C4.8 -20.6 9.7 -14.5 13.4 -7.9Z" fill="#00AF91"></path></g><g transform="translate(619 414)"><path d="M39.3 -22.1C46.8 -9.7 45.9 8.2 38 20.3C30 32.4 15 38.7 -0.3 38.9C-15.7 39.1 -31.4 33.1 -36.2 22.9C-41 12.6 -34.9 -2 -27.1 -14.7C-19.2 -27.3 -9.6 -37.9 3.1 -39.8C15.9 -41.6 31.8 -34.6 39.3 -22.1Z" fill="#00AF91"></path></g><g transform="translate(1675 200)"><path d="M44.2 -24.3C55.6 -5.7 62.1 16.9 53.9 34.9C45.7 52.9 22.8 66.3 4.2 63.9C-14.5 61.4 -28.9 43.2 -38.3 24.6C-47.6 5.9 -51.8 -13.2 -44.6 -29.4C-37.3 -45.6 -18.7 -58.9 -1.1 -58.2C16.4 -57.5 32.7 -42.9 44.2 -24.3Z" fill="#00AF91"></path></g><g transform="translate(132 386)"><path d="M32.4 -17C40 -5.4 43 10.6 36.8 20.3C30.6 30 15.3 33.5 2.7 31.9C-10 30.4 -20 23.9 -24.1 15.3C-28.1 6.8 -26.3 -3.6 -21.3 -13.6C-16.3 -23.6 -8.1 -33.2 2.1 -34.4C12.4 -35.6 24.7 -28.5 32.4 -17Z" fill="#00AF91"></path></g><g transform="translate(1352 138)"><path d="M28.3 -14.7C36.6 -1.9 43.2 13.4 38.2 23.3C33.2 33.1 16.6 37.5 3.5 35.5C-9.7 33.5 -19.3 25.1 -26.4 14C-33.5 3 -38.1 -10.8 -33.2 -21.6C-28.4 -32.4 -14.2 -40.2 -2.1 -38.9C10 -37.7 20 -27.5 28.3 -14.7Z" fill="#00AF91"></path></g><g transform="translate(640 160)"><path d="M39.5 -22.5C46.9 -10 45.7 7.9 37.7 24.7C29.6 41.5 14.8 57.4 -3.6 59.5C-22.1 61.6 -44.2 49.9 -54.4 31.8C-64.6 13.7 -63 -10.9 -52 -25.5C-40.9 -40.2 -20.5 -44.9 -2.2 -43.7C16 -42.4 32.1 -35.1 39.5 -22.5Z" fill="#00AF91"></path></g><g transform="translate(1779 543)"><path d="M72.4 -41.1C84.2 -21.3 77.6 9.8 62.4 32.8C47.3 55.9 23.6 70.8 0.5 70.5C-22.7 70.2 -45.4 54.8 -56.3 34.2C-67.3 13.6 -66.4 -12.1 -55.1 -31.6C-43.7 -51.2 -21.9 -64.5 4.2 -66.9C30.3 -69.3 60.6 -60.9 72.4 -41.1Z" fill="#00AF91"></path></g><g transform="translate(345 556)"><path d="M58.4 -31.1C72 -10.1 76.8 18.5 65.6 39.2C54.5 59.9 27.2 72.7 4.3 70.2C-18.6 67.7 -37.1 49.9 -50.2 28.1C-63.3 6.3 -70.9 -19.5 -61.7 -38C-52.4 -56.5 -26.2 -67.6 -1.9 -66.5C22.4 -65.4 44.8 -52.1 58.4 -31.1Z" fill="#00AF91"></path></g><g transform="translate(966 553)"><path d="M12.1 -6.8C14.9 -2.1 16 3.9 13.6 8.4C11.3 12.9 5.7 16 0.8 15.6C-4.1 15.2 -8.3 11.2 -11.3 6.2C-14.3 1.3 -16.2 -4.6 -14.1 -8.9C-12.1 -13.1 -6 -15.8 -0.7 -15.4C4.6 -15 9.3 -11.5 12.1 -6.8Z" fill="#00AF91"></path></g><g transform="translate(1093 139)"><path d="M51.3 -29.6C60.3 -14.2 56.9 8.4 46.3 26.5C35.7 44.6 17.8 58.3 -3.4 60.3C-24.6 62.2 -49.2 52.4 -57.6 35.6C-66 18.7 -58.1 -5.2 -45.8 -22.5C-33.5 -39.9 -16.8 -50.8 2.2 -52.1C21.2 -53.3 42.4 -45 51.3 -29.6Z" fill="#00AF91"></path></g></g></svg>