<svg id="visual" viewBox="0 0 1920 700" width="1920" height="700" xmlns="http://www.w3.org/2000/svg" xmlns:xlink="http://www.w3.org/1999/xlink" version="1.1"><g><g transform="translate(1180 572)"><path d="M77.7 -47.6C90.5 -22.7 83.7 10.8 67.4 34.5C51.2 58.2 25.6 72 -4.5 74.6C-34.6 77.2 -69.1 68.5 -85.6 44.7C-102.1 20.9 -100.5 -18.1 -83.3 -45.6C-66 -73.1 -33 -89.1 -0.3 -89C32.5 -88.8 64.9 -72.5 77.7 -47.6Z" fill="#00AF91"></path></g><g transform="translate(248 182)"><path d="M34 -20.9C38.1 -12.6 31.3 0.8 23.9 10.2C16.4 19.6 8.2 25 -3.3 26.9C-14.8 28.8 -29.5 27.2 -36.9 17.8C-44.3 8.5 -44.4 -8.6 -37 -18.9C-29.7 -29.1 -14.8 -32.6 0.1 -32.6C15 -32.7 29.9 -29.3 34 -20.9Z" fill="#00AF91"></path></g><g transform="translate(1095 322)"><path d="M40.7 -22.5C46.6 -13.3 41 3.6 32.3 15.9C23.6 28.1 11.8 35.8 -3.4 37.7C-18.6 39.7 -37.2 36 -42.2 25.8C-47.2 15.7 -38.7 -0.9 -29.4 -12.1C-20.1 -23.3 -10 -29.2 3.7 -31.4C17.4 -33.5 34.8 -31.8 40.7 -22.5Z" fill="#00AF91"></path></g><g transform="translate(1673 252)"><path d="M35.5 -20.6C44.2 -5.5 48.1 12.2 41.3 28.8C34.6 45.3 17.3 60.6 0.7 60.2C-15.8 59.8 -31.6 43.6 -41.7 25.1C-51.7 6.7 -55.9 -14 -48 -28.7C-40.1 -43.4 -20 -52 -3.3 -50.1C13.4 -48.2 26.9 -35.7 35.5 -20.6Z" fill="#00AF91"></path></g><g transform="translate(198 514)"><path d="M47.6 -24.8C59.1 -7.6 64.1 16.1 55 35C46 53.9 23 67.9 2.9 66.2C-17.1 64.5 -34.3 47.1 -44.9 27.3C-55.6 7.5 -59.8 -14.8 -51.3 -30.2C-42.7 -45.7 -21.3 -54.4 -1.6 -53.5C18.1 -52.5 36.2 -41.9 47.6 -24.8Z" fill="#00AF91"></path></g><g transform="translate(838 284)"><path d="M35.3 -17.9C42.8 -7.3 44.1 9.5 37.2 22.3C30.3 35 15.1 43.9 1.5 43C-12.1 42.1 -24.2 31.5 -31.7 18.5C-39.1 5.4 -41.9 -10.2 -35.8 -19.9C-29.7 -29.6 -14.9 -33.5 -0.5 -33.2C13.9 -32.9 27.7 -28.4 35.3 -17.9Z" fill="#00AF91"></path></g><g transform="translate(1471 482)"><path d="M41.4 -20.9C51 -7.3 54.4 13 46.4 28.6C38.5 44.2 19.2 55.2 -0.2 55.3C-19.6 55.4 -39.2 44.7 -45.2 30.2C-51.2 15.7 -43.6 -2.5 -33.8 -16.3C-24 -30 -12 -39.3 2 -40.5C15.9 -41.6 31.8 -34.6 41.4 -20.9Z" fill="#00AF91"></path></g><g transform="translate(668 566)"><path d="M47.5 -26.3C60.4 -5.1 68.8 19.8 60.2 35.7C51.5 51.6 25.8 58.6 -2.8 60.2C-31.3 61.8 -62.5 58 -75.3 39.7C-88 21.4 -82.2 -11.4 -66.6 -34.1C-50.9 -56.9 -25.5 -69.7 -4.1 -67.3C17.3 -65 34.6 -47.5 47.5 -26.3Z" fill="#00AF91"></path></g><g transform="translate(1348 233)"><path d="M64.3 -39.7C74 -20.3 66.1 6.6 52.5 29.8C38.8 53 19.4 72.5 -2.6 74C-24.5 75.5 -49.1 59 -61.7 36.4C-74.2 13.8 -74.8 -14.9 -62.6 -35.8C-50.3 -56.6 -25.2 -69.7 1.1 -70.3C27.3 -70.9 54.6 -59.1 64.3 -39.7Z" fill="#00AF91"></path></g><g transform="translate(522 355)"><path d="M25.9 -18.6C31.6 -5.1 32.9 7.3 27.9 16.2C22.8 25 11.4 30.3 -1.9 31.4C-15.3 32.5 -30.5 29.5 -35.8 20.5C-41.1 11.5 -36.4 -3.4 -28.8 -18C-21.2 -32.7 -10.6 -47 -0.2 -46.9C10.1 -46.7 20.2 -32.1 25.9 -18.6Z" fill="#00AF91"></path></g><g transform="translate(1724 568)"><path d="M19.3 -11.8C23 -4.9 22.3 3.8 18.4 9C14.4 14.1 7.2 15.7 -0.6 16.1C-8.4 16.4 -16.7 15.4 -20 10.6C-23.4 5.8 -21.7 -2.9 -17.6 -10.2C-13.4 -17.4 -6.7 -23.3 0.6 -23.6C7.9 -23.9 15.7 -18.8 19.3 -11.8Z" fill="#00AF91"></path></g><g transform="translate(634 128)"><path d="M36.5 -24.3C41.1 -13.2 34.2 1.3 26.2 13.8C18.2 26.2 9.1 36.7 -3.3 38.7C-15.7 40.6 -31.4 33.9 -37.4 22.6C-43.3 11.3 -39.5 -4.7 -31.7 -17.6C-23.8 -30.6 -11.9 -40.6 2 -41.7C16 -42.9 32 -35.3 36.5 -24.3Z" fill="#00AF91"></path></g></g></svg>