<svg xmlns="http://www.w3.org/2000/svg" version="1.1" xmlns:xlink="http://www.w3.org/1999/xlink" xmlns:svgjs="http://svgjs.dev/svgjs" viewBox="0 0 800 400"><path d="M17.488788604736328,52.914798736572266C25.26158332824707,61.88340822855631,63.82660325368246,88.63975842793782,64.12555694580078,106.72645568847656C64.42451063791911,124.8131529490153,20.179370880126953,143.49776204427084,19.28251075744629,161.4349822998047C18.385650634765625,179.37220255533853,57.39910475413004,194.31988271077475,58.7443962097168,214.3497772216797C60.08968766530355,234.37967173258463,26.457399368286133,262.6307907104492,27.354259490966797,281.6143493652344C28.25111961364746,300.59790802001953,66.51718616485596,311.9581553141276,64.12555694580078,328.2511291503906C61.733927726745605,344.5441029866536,2.3916289011637364,371.4499206542969,13.004484176635742,379.3721923828125C23.61733945210775,387.2944641113281,103.88639545440674,382.21225992838544,127.80268859863281,375.7847595214844C151.7189817428589,369.3572591145833,142.30194346110025,340.80718994140625,156.5022430419922,340.80718994140625C170.70254262288412,340.80718994140625,197.9073257446289,376.2331949869792,213.00448608398438,375.7847595214844C228.10164642333984,375.33632405598956,231.24066162109375,339.1629180908203,247.085205078125,338.1165771484375C262.92974853515625,337.0702362060547,289.53662109375,369.5067138671875,308.0717468261719,369.5067138671875C326.60687255859375,369.5067138671875,343.94618225097656,338.41552734375,358.29595947265625,338.1165771484375C372.64573669433594,337.817626953125,376.8310953776042,367.7130126953125,394.17041015625,367.7130126953125C411.5097249348958,367.7130126953125,444.99253845214844,337.817626953125,462.33184814453125,338.1165771484375C479.67115783691406,338.41552734375,483.2585856119792,368.7593282063802,498.2062683105469,369.5067138671875C513.1539510091146,370.2540995279948,534.8281097412109,342.60089111328125,552.0179443359375,342.60089111328125C569.2077789306641,342.60089111328125,582.9596252441406,368.7593282063802,601.3452758789062,369.5067138671875C619.7309265136719,370.2540995279948,646.0388692220052,345.59043375651044,662.3318481445312,347.085205078125C678.6248270670573,348.57997639973956,684.6039021809896,378.1763865152995,699.1031494140625,378.475341796875C713.6023966471354,378.7742970784505,736.4723307291666,349.4768473307292,749.3273315429688,348.8789367675781C762.1823323567709,348.28102620442706,771.599365234375,385.35125732421875,776.233154296875,374.88787841796875C780.866943359375,364.42449951171875,783.4080912272135,306.8759409586589,777.1300659179688,286.0986633300781C770.852040608724,265.3213857014974,738.8639628092448,261.4349772135417,738.5650024414062,250.22421264648438C738.2660420735677,239.0134480794271,773.8415323893229,231.988037109375,775.3363037109375,218.83407592773438C776.8310750325521,205.68011474609375,747.085194905599,182.8101603190104,747.5336303710938,171.30044555664062C747.9820658365885,159.79073079427084,778.0269165039062,159.04335021972656,778.0269165039062,149.77578735351562C778.0269165039062,140.5082244873047,746.7862447102865,126.158447265625,747.5336303710938,115.695068359375C748.281016031901,105.231689453125,784.3049519856771,96.8609848022461,782.51123046875,86.99551391601562C780.7175089518229,77.13004302978516,737.3692118326823,67.71300506591797,736.7713012695312,56.50224304199219C736.1733907063802,45.291481018066406,788.938710530599,25.411061604817707,778.9237670898438,19.730941772460938C768.9088236490885,14.050821940104168,693.8714803059896,17.339311599731445,676.681640625,22.421524047851562C659.4918009440104,27.50373649597168,697.4588724772135,49.17787869771322,675.7847290039062,50.22421646118164C654.110585530599,51.27055422465006,573.24365234375,27.802689870198567,546.6367797851562,28.69955062866211C520.0299072265625,29.596411387125652,529.7458852132162,56.053811391194664,516.1434936523438,55.60538101196289C502.5411020914714,55.15695063273112,479.5216827392578,27.204783121744793,465.0224304199219,26.008968353271484C450.52317810058594,24.813153584798176,446.0388641357422,47.83258501688639,429.1479797363281,48.43049240112305C412.25709533691406,49.0283997853597,376.6816101074219,29.895366032918293,363.6771240234375,29.596412658691406C350.6726379394531,29.29745928446452,363.82659403483075,46.93572584788004,351.1210632324219,46.63677215576172C338.415532430013,46.337818463643394,301.6442362467448,24.06576983133952,287.4439392089844,27.802690505981445C273.24364217122394,31.53961118062337,279.52167256673175,69.80568027496338,265.9192810058594,69.05829620361328C252.31688944498697,68.31091213226318,222.27204132080078,24.962631225585938,205.82958984375,23.31838607788086C189.38713836669922,21.67414093017578,181.46487045288086,59.94020938873291,167.2645721435547,59.19282531738281C153.06427383422852,58.445441246032715,132.13751602172852,21.076234181722004,120.62779998779297,18.834081649780273C109.11808395385742,16.591929117838543,111.21075948079427,45.73991012573242,98.2062759399414,45.73991012573242C85.20179239908855,45.73991012573242,56.0538132985433,17.787743886311848,42.60089874267578,18.834081649780273C29.147984186808266,19.8804194132487,21.674140294392902,46.48729419708252,17.488788604736328,52.01793670654297" fill="none" stroke-width="25" stroke="#f58634" stroke-linecap="round"></path><defs><linearGradient id="SvgjsLinearGradient1000"><stop stop-color="hsl(37, 99%, 67%)" offset="0"></stop><stop stop-color="hsl(316, 73%, 52%)" offset="1"></stop></linearGradient></defs></svg>